<?xml version="1.0" standalone="no"?>
<!DOCTYPE svg PUBLIC "-//W3C//DTD SVG 20010904//EN"
 "http://www.w3.org/TR/2001/REC-SVG-20010904/DTD/svg10.dtd">
<svg version="1.0" xmlns="http://www.w3.org/2000/svg"
 width="512.000000pt" height="512.000000pt" viewBox="0 0 512.000000 512.000000"
 preserveAspectRatio="xMidYMid meet">
<metadata>
Created by potrace 1.14, written by Peter Selinger 2001-2017
</metadata>
<g transform="translate(0.000000,512.000000) scale(0.100000,-0.100000)"
fill="#000000" stroke="none">
<path d="M469 5113 c-1 -5 -2 -88 -3 -185 l-1 -178 151 0 c113 0 153 -3 156
-12 6 -21 2 -2803 -4 -2813 -4 -6 -67 -10 -152 -9 -102 1 -146 -2 -147 -10 -1
-6 -2 -89 -3 -183 -1 -167 -1 -173 19 -174 11 0 440 0 953 0 512 -1 933 -4
933 -7 1 -4 2 -83 3 -177 l2 -170 -460 -463 c-254 -254 -463 -465 -466 -468
-2 -2 54 -63 125 -134 l130 -130 331 331 c182 182 333 327 336 323 2 -5 4
-152 4 -326 -1 -175 1 -318 4 -319 55 -6 361 -1 363 6 2 6 3 153 3 327 -1 175
1 318 4 318 3 0 154 -148 335 -330 l330 -330 127 127 c71 70 127 132 125 137
-1 4 -209 215 -462 467 l-459 459 -1 168 c-1 92 0 172 2 178 3 8 251 11 901
12 493 0 922 1 952 1 l56 1 -1 183 -1 182 -152 0 c-84 0 -152 2 -153 5 -4 21
-3 2814 1 2821 3 4 73 10 155 11 l150 3 0 180 -1 180 -2092 3 c-1150 1 -2093
-1 -2093 -5z m3508 -1770 c0 -775 -3 -1412 -7 -1418 -6 -7 -486 -9 -1412 -8
-771 0 -1406 1 -1409 2 -7 1 -9 2812 -2 2824 2 4 640 7 1417 7 l1413 0 0
-1407z"/>
<path d="M1820 4074 l0 -184 740 0 740 0 0 183 0 184 -740 0 -740 1 0 -184z"/>
<path d="M1516 3511 c-2 -3 -4 -86 -4 -184 l1 -177 1048 0 1047 0 -1 183 -2
182 -1043 1 c-573 1 -1044 -1 -1046 -5z"/>
<path d="M1820 2595 l0 -185 740 0 740 0 0 185 0 185 -740 0 -740 0 0 -185z"/>
</g>
</svg>
